# xmcd
#
# Track frame offsets:
#	150
#	17325
#	34800
#	50325
#	72601
#	87149
#	99447
#	119062
#	133649
#	146549
#	161547
#	175366
#	188774
#	205575
#	221662
#	240595
#	253871
#	275919
#	289202
#	302627
#	321826
#
# Disc length: 4491 seconds
#
# Revision: 1
# Processed by: cddbd v1.5.2PL0 Copyright (c) Steve Scherf et al.
# Submitted via: audiograbber 1.83.01
#
DISCID=3c118915
DTITLE=Delbert McClinton - 2 For 1 Second wind-Keeper Of The Flame
DYEAR=1979
DGENRE=R&B
TTITLE0="B" Movie
TTITLE1=Isn't That So
TTITLE2=Corinna
TTITLE3=Take It Easy
TTITLE4=Spoonful
TTITLE5=It Ain't whatcha Eat But The Way How You Chew It
TTITLE6=Sick and Tired
TTITLE7=Maybe someday Baby
TTITLE8=Big River
TTITLE9=Lovinest Man
TTITLE10=Plain Old Makin' Love
TTITLE11=Just A Little Bit
TTITLE12=Shot From The Saddle
TTITLE13=I Don't Want To Hear It Anymore
TTITLE14=Have Mercy
TTITLE15=I'm talking About You
TTITLE16=Two More Bottles Of Wine
TTITLE17=Seesaw
TTITLE18=I Received A Letter
TTITLE19=A Mess Of Blues
TTITLE20=That Woman
EXTD=
EXTT0=
EXTT1=
EXTT2=
EXTT3=
EXTT4=
EXTT5=
EXTT6=
EXTT7=
EXTT8=
EXTT9=
EXTT10=
EXTT11=
EXTT12=
EXTT13=
EXTT14=
EXTT15=
EXTT16=
EXTT17=
EXTT18=
EXTT19=
EXTT20=
PLAYORDER=
